<svg width="16" height="17" viewBox="0 0 16 17" fill="none" xmlns="http://www.w3.org/2000/svg">
<g clip-path="url(#clip0_6566_116)">
<path d="M7.36 8.05667H0V2.72333C0 2.19 0.195556 1.72778 0.586667 1.33667C0.977778 0.945555 1.45778 0.75 2.02667 0.75H7.36V8.05667ZM1.33333 6.72333H6.02667V2.08333H2.02667C1.81333 2.08333 1.64444 2.14556 1.52 2.27C1.39556 2.39444 1.33333 2.54556 1.33333 2.72333V6.72333ZM16 8.05667H8.69333V0.75H14.0267C14.56 0.75 15.0222 0.945555 15.4133 1.33667C15.8044 1.72778 16 2.20778 16 2.77667V8.05667ZM10.0267 6.72333H14.6667V2.72333C14.6667 2.54556 14.6044 2.39444 14.48 2.27C14.3556 2.14556 14.2044 2.08333 14.0267 2.08333H10.0267V6.72333ZM7.36 16.75H2.02667C1.45778 16.75 0.977778 16.5544 0.586667 16.1633C0.195556 15.7722 0 15.31 0 14.7767V9.39H7.36V16.75ZM1.33333 10.7233V14.7233C1.33333 14.9367 1.39556 15.1056 1.52 15.23C1.64444 15.3544 1.81333 15.4167 2.02667 15.4167H6.02667V10.7233H1.33333ZM14.0267 16.75H8.69333V9.39H16V14.7233C16 15.2922 15.8044 15.7722 15.4133 16.1633C15.0222 16.5544 14.5422 16.75 13.9733 16.75H14.0267ZM10.0267 15.4167H14.0267C14.2044 15.4167 14.3556 15.3544 14.48 15.23C14.6044 15.1056 14.6667 14.9367 14.6667 14.7233V10.7233H10.0267V15.4167Z" fill="white"/>
</g>
<defs>
<clipPath id="clip0_6566_116">
<rect width="16" height="16" fill="white" transform="matrix(1 0 0 -1 0 16.75)"/>
</clipPath>
</defs>
</svg>
