<svg width="20" height="22" viewBox="0 0 20 22" fill="none" xmlns="http://www.w3.org/2000/svg">
<g clip-path="url(#clip0_6566_125)">
<g clip-path="url(#clip1_6566_125)">
<mask id="mask0_6566_125" style="mask-type:luminance" maskUnits="userSpaceOnUse" x="0" y="0" width="20" height="21">
<path d="M20 0.767151H0V20.7672H20V0.767151Z" fill="white"/>
</mask>
<g mask="url(#mask0_6566_125)">
<path d="M13.667 4.16046C12.667 3.31296 11.637 2.43379 10.5945 1.39463L10.0003 0.804626L9.417 1.39546C7.54033 3.27713 6.65366 6.16629 6.26866 7.89963C5.97397 7.44288 5.7553 6.94137 5.62116 6.41463L5.26866 5.05379L4.24366 6.01713C2.44783 7.70296 1.25033 9.37546 1.25033 12.0538C1.23356 13.9857 1.86276 15.8678 3.03801 17.4012C4.21325 18.9345 5.86714 20.0313 7.737 20.5172C8.30039 20.6542 8.87542 20.7379 9.4545 20.7672C9.63555 20.7901 9.81783 20.802 10.0003 20.803C10.0961 20.803 10.1895 20.7947 10.2828 20.7888C12.5529 20.7205 14.7071 19.7703 16.288 18.1397C17.8689 16.5091 18.7522 14.3266 18.7503 12.0555C18.7503 8.47713 16.3945 6.47713 13.667 4.16046ZM10.167 19.1222C10.0836 19.1222 10.0003 19.1305 9.91199 19.1297C9.16193 19.1067 8.45015 18.7931 7.92704 18.2551C7.40394 17.7171 7.11047 16.9967 7.10866 16.2463C7.10866 15.1897 7.67533 14.663 8.95783 13.5713C9.28116 13.2963 9.63283 12.9972 10.0028 12.6547C10.327 12.9488 10.642 13.2155 10.9328 13.463C12.2211 14.5563 12.8936 15.1772 12.8936 16.2438C12.8922 16.9809 12.6091 17.6896 12.1022 18.2247C11.5952 18.7598 10.9029 19.0809 10.167 19.1222ZM14.3503 17.6463L14.3336 17.658C14.4832 17.2023 14.5597 16.7259 14.5603 16.2463C14.5603 14.3588 13.322 13.3072 12.012 12.1947C11.5478 11.8013 11.0686 11.3947 10.5903 10.9163L10.0003 10.3272L9.41116 10.9163C8.87116 11.4555 8.34283 11.9055 7.87699 12.3022C6.57033 13.4138 5.44116 14.3747 5.44116 16.2463C5.44294 16.7465 5.52741 17.2429 5.69116 17.7155C4.82371 17.0494 4.12197 16.1918 3.64074 15.2097C3.15951 14.2276 2.91181 13.1475 2.917 12.0538C2.90329 10.5915 3.46928 9.18323 4.49116 8.13713C4.66718 8.49423 4.87585 8.83429 5.1145 9.15296C5.2888 9.38816 5.52811 9.56722 5.80294 9.66806C6.07777 9.7689 6.3761 9.78711 6.66116 9.72046C6.95115 9.6559 7.21641 9.50918 7.42522 9.29786C7.63404 9.08653 7.77757 8.81953 7.83866 8.52879C8.18759 6.6135 8.94226 4.79502 10.052 3.19546C10.9311 4.02879 11.802 4.76629 12.5878 5.43379C15.1978 7.65046 17.0878 9.25213 17.0878 12.0588C17.0898 13.1377 16.844 14.2026 16.3692 15.1714C15.8944 16.1402 15.2042 16.9869 14.3503 17.6463Z" fill="#3BB77E"/>
</g>
</g>
</g>
<defs>
<clipPath id="clip0_6566_125">
<rect width="20" height="21" fill="white" transform="translate(0 0.25)"/>
</clipPath>
<clipPath id="clip1_6566_125">
<rect width="20" height="21" fill="white" transform="translate(0 0.25)"/>
</clipPath>
</defs>
</svg>
