<svg width="16" height="16" viewBox="0 0 16 16" fill="none" xmlns="http://www.w3.org/2000/svg">
<g clip-path="url(#clip0_6566_924)">
<g clip-path="url(#clip1_6566_924)">
<mask id="mask0_6566_924" style="mask-type:luminance" maskUnits="userSpaceOnUse" x="0" y="0" width="16" height="16">
<path d="M15.3733 0.409424H0.314453V15.4682H15.3733V0.409424Z" fill="white"/>
</mask>
<g mask="url(#mask0_6566_924)">
<path d="M13.4913 8.20511V7.31161C13.4913 5.81392 12.8964 4.37757 11.8374 3.31854C10.7783 2.25952 9.34195 1.66455 7.84425 1.66455C6.34656 1.66455 4.91021 2.25952 3.85118 3.31854C2.79215 4.37757 2.1972 5.81392 2.1972 7.31161V8.20511C1.5391 8.49488 1.00052 9.00193 0.671625 9.64135C0.342729 10.2808 0.243478 11.0139 0.390488 11.7177C0.537497 12.4216 0.921844 13.0536 1.47918 13.508C2.03653 13.9623 2.73304 14.2114 3.45209 14.2136H4.707V7.93906H3.45209V7.31161C3.45209 6.14674 3.91484 5.02958 4.73853 4.20589C5.56222 3.3822 6.67938 2.91946 7.84425 2.91946C9.00913 2.91946 10.1263 3.3822 10.95 4.20589C11.7736 5.02958 12.2364 6.14674 12.2364 7.31161V7.93906H10.9815V12.9587H8.47171V14.2136H12.2364C12.9555 14.2114 13.6519 13.9623 14.2093 13.508C14.7667 13.0536 15.151 12.4216 15.2981 11.7177C15.4451 11.0139 15.3458 10.2808 15.0168 9.64135C14.688 9.00193 14.1494 8.49488 13.4913 8.20511ZM3.45209 12.9587C2.95287 12.9587 2.47408 12.7603 2.12107 12.4074C1.76807 12.0543 1.56974 11.5756 1.56974 11.0764C1.56974 10.5771 1.76807 10.0983 2.12107 9.74526C2.47408 9.39229 2.95287 9.19396 3.45209 9.19396V12.9587ZM12.2364 12.9587V9.19396C12.7356 9.19396 13.2144 9.39229 13.5674 9.74526C13.9205 10.0983 14.1188 10.5771 14.1188 11.0764C14.1188 11.5756 13.9205 12.0543 13.5674 12.4074C13.2144 12.7603 12.7356 12.9587 12.2364 12.9587Z" fill="#3BB77E"/>
</g>
</g>
</g>
<defs>
<clipPath id="clip0_6566_924">
<rect width="16" height="16" fill="white"/>
</clipPath>
<clipPath id="clip1_6566_924">
<rect width="16" height="16" fill="white"/>
</clipPath>
</defs>
</svg>
